<?xml version="1.0" standalone="no"?>
<!DOCTYPE svg PUBLIC "-//W3C//DTD SVG 20010904//EN"
 "http://www.w3.org/TR/2001/REC-SVG-20010904/DTD/svg10.dtd">
<svg version="1.0" xmlns="http://www.w3.org/2000/svg"
 width="500.000000pt" height="500.000000pt" viewBox="0 0 500.000000 500.000000"
 preserveAspectRatio="xMidYMid meet">

<g transform="translate(0.000000,500.000000) scale(0.100000,-0.100000)"
fill="#ffffff" stroke="none">
<path d="M1606 3308 c-13 -18 -16 -53 -16 -170 0 -87 5 -157 11 -172 14 -31
47 -40 76 -21 21 14 23 23 25 141 l3 126 200 3 c110 2 235 1 278 -2 l78 -6 -3
-66 -3 -66 -194 -3 c-123 -1 -199 -6 -208 -13 -18 -16 -19 -569 -1 -587 9 -9
69 -12 210 -12 l198 0 0 -70 0 -70 -280 0 -280 0 0 134 c0 146 -7 166 -55 166
-47 0 -55 -29 -55 -212 0 -138 3 -169 16 -182 13 -14 61 -16 373 -16 334 0
359 1 374 18 14 16 17 43 17 164 0 128 -2 147 -18 161 -16 15 -46 17 -210 17
l-192 0 0 195 0 195 88 1 c48 0 131 0 185 -1 150 -2 147 -6 147 184 0 135 -2
155 -18 169 -17 15 -57 17 -375 17 l-356 0 -15 -22z"/>
<path d="M2523 3300 c-30 -12 -31 -55 -2 -71 15 -8 109 -10 321 -8 308 4 318
6 318 44 0 39 -10 40 -317 42 -165 1 -308 -2 -320 -7z"/>
<path d="M2585 3138 c-55 -19 -95 -71 -95 -124 0 -65 71 -134 138 -134 34 0
86 31 108 65 l16 25 250 0 c153 0 257 4 269 10 20 11 26 54 9 65 -6 3 -124 6
-263 6 -138 -1 -256 2 -262 6 -5 5 -15 17 -21 28 -24 42 -100 69 -149 53z m80
-83 c14 -13 25 -33 25 -44 0 -29 -49 -64 -80 -56 -36 9 -44 20 -44 60 0 62 56
84 99 40z"/>
<path d="M2833 2885 c-18 -7 -42 -30 -55 -49 l-23 -36 -337 0 -338 0 -6 -27
c-13 -51 -1 -53 357 -53 l327 0 16 -25 c41 -63 129 -83 182 -43 28 22 32 26
53 58 8 11 34 14 133 12 l123 -3 30 -34 c17 -18 40 -38 52 -44 63 -31 148 6
172 75 27 78 -10 152 -89 175 -50 15 -121 -15 -145 -60 l-16 -31 -123 0 -124
0 -26 35 c-47 61 -100 78 -163 50z m91 -76 c15 -12 26 -30 26 -45 0 -30 -33
-64 -62 -64 -29 0 -68 38 -68 66 0 23 42 64 65 64 7 0 24 -9 39 -21z m524 -7
c30 -38 2 -102 -46 -102 -51 0 -81 62 -49 102 23 30 71 30 95 0z"/>
<path d="M1640 2838 c-6 -18 -21 -55 -31 -82 -23 -59 -23 -66 -4 -66 8 0 15 2
15 3 0 2 13 40 29 85 16 44 27 83 23 86 -11 12 -20 5 -32 -26z"/>
<path d="M1520 2828 c-93 -56 -90 -45 -20 -90 34 -21 65 -37 67 -34 12 11 -7
34 -41 50 -20 9 -36 19 -36 21 0 2 18 14 40 26 22 13 40 29 40 36 0 18 -9 16
-50 -9z"/>
<path d="M1700 2838 c0 -7 17 -24 37 -37 l37 -24 -42 -24 c-23 -14 -42 -29
-42 -34 0 -17 29 -9 79 22 58 37 57 42 -19 83 -34 19 -50 23 -50 14z"/>
<path d="M2552 2619 c-75 -48 -83 -136 -19 -207 51 -55 151 -45 195 19 l23 34
261 5 c234 4 262 7 272 23 8 12 8 22 0 35 -10 15 -36 17 -275 20 l-264 2 -12
28 c-27 60 -119 81 -181 41z m122 -82 c19 -26 19 -30 5 -55 -20 -37 -80 -43
-103 -10 -20 28 -20 48 0 76 22 32 70 26 98 -11z"/>
<path d="M2535 2293 c-30 -7 -38 -19 -31 -47 l6 -26 320 0 320 0 6 27 c13 51
-2 53 -315 52 -157 -1 -295 -3 -306 -6z"/>
<path d="M1343 1916 c-57 -26 -81 -112 -48 -175 20 -39 77 -65 128 -58 51 7
76 29 57 52 -9 11 -16 12 -26 5 -7 -6 -32 -10 -56 -8 -37 3 -45 7 -60 36 -20
41 -9 85 29 109 21 14 29 14 64 3 35 -12 42 -12 49 1 23 36 -77 62 -137 35z"/>
<path d="M1546 1814 c-25 -64 -43 -121 -40 -126 11 -17 34 -7 49 22 14 27 21
30 61 30 38 0 46 -3 54 -25 5 -14 17 -28 26 -32 31 -12 34 12 10 77 -56 153
-62 165 -89 168 -23 3 -28 -5 -71 -114z m92 -1 c11 -33 11 -33 -24 -33 l-34 0
15 36 c8 20 15 39 15 42 0 14 18 -16 28 -45z"/>
<path d="M1767 1924 c-11 -12 -8 -232 3 -239 6 -4 18 -1 26 6 22 18 16 232 -6
237 -9 1 -19 0 -23 -4z"/>
<path d="M1894 1911 c-75 -47 -68 -178 11 -215 46 -22 86 -20 126 7 64 43 74
140 19 192 -39 37 -111 45 -156 16z m99 -33 c32 -17 46 -39 47 -74 0 -44 -32
-74 -81 -74 -34 0 -42 5 -59 33 -25 39 -19 73 16 105 28 25 45 27 77 10z"/>
<path d="M2240 1923 c-46 -18 -53 -81 -14 -112 15 -12 35 -21 44 -21 10 0 28
-9 41 -20 24 -20 24 -20 5 -35 -25 -19 -40 -19 -76 0 -27 14 -30 14 -40 -5 -9
-16 -6 -22 19 -35 42 -21 93 -19 125 6 22 17 27 28 24 58 -3 37 -4 37 -98 81
-8 4 -15 16 -15 26 0 19 23 22 80 12 12 -2 21 3 23 14 6 29 -72 49 -118 31z"/>
<path d="M2471 1908 c-5 -13 -25 -63 -45 -112 -42 -104 -43 -116 -15 -116 14
0 24 10 32 30 10 28 15 30 59 30 43 0 49 -3 63 -30 15 -29 38 -39 50 -21 6 10
-40 133 -75 202 -23 45 -55 52 -69 17z m59 -114 c0 -9 -11 -14 -31 -14 -26 0
-30 3 -24 18 4 9 12 30 17 46 l11 28 13 -32 c8 -18 14 -39 14 -46z"/>
<path d="M2650 1805 c0 -115 2 -126 18 -123 14 3 18 17 22 78 l5 75 33 -62
c18 -35 39 -63 47 -63 8 0 27 27 42 60 15 33 31 60 36 60 4 0 7 -34 7 -76 0
-66 2 -75 18 -72 15 3 17 18 20 126 l3 122 -25 0 c-21 0 -31 -12 -62 -70 -20
-39 -39 -68 -41 -66 -3 3 -22 33 -42 68 -25 43 -43 64 -59 66 -22 3 -22 2 -22
-123z"/>
<path d="M2958 1924 c-5 -4 -8 -61 -8 -126 0 -90 3 -118 13 -118 22 0 37 23
37 57 0 32 1 33 43 33 55 0 87 30 87 82 0 50 -26 69 -102 75 -35 3 -66 2 -70
-3z m99 -40 c50 -14 33 -74 -21 -74 -30 0 -34 3 -39 33 -2 17 -3 35 0 40 5 8
30 9 60 1z"/>
<path d="M3223 1918 c-15 -19 -83 -200 -83 -221 0 -28 32 -17 48 16 12 24 19
27 62 27 44 0 49 -2 59 -30 10 -31 38 -40 47 -16 3 7 -15 62 -38 122 -34 84
-49 110 -64 112 -12 2 -25 -3 -31 -10z m43 -93 c19 -45 19 -45 -16 -45 -16 0
-30 4 -30 9 0 13 21 71 26 71 3 0 12 -16 20 -35z"/>
<path d="M3395 1918 c-3 -8 -4 -63 -3 -124 3 -101 4 -109 23 -109 19 0 20 7
20 120 0 106 -2 120 -18 123 -9 2 -19 -3 -22 -10z"/>
<path d="M3545 1921 c-28 -12 -51 -40 -64 -81 -35 -102 81 -196 179 -145 57
29 79 126 43 182 -29 44 -106 65 -158 44z m89 -42 c47 -22 56 -88 18 -131 -24
-29 -86 -24 -111 8 -29 37 -26 70 8 105 32 32 47 35 85 18z"/>
</g>
</svg>
